<?xml version="1.0" encoding="utf-8"?>
<!-- Generator: Adobe Illustrator 16.0.4, SVG Export Plug-In . SVG Version: 6.00 Build 0)  -->
<!DOCTYPE svg PUBLIC "-//W3C//DTD SVG 1.1//EN" "http://www.w3.org/Graphics/SVG/1.1/DTD/svg11.dtd">
<svg version="1.1" id="Layer_1" xmlns="http://www.w3.org/2000/svg" xmlns:xlink="http://www.w3.org/1999/xlink" x="0px" y="0px"
	 width="262.757px" height="441.293px" viewBox="0 0 262.757 441.293" enable-background="new 0 0 262.757 441.293"
	 xml:space="preserve">
<circle cx="131.375" cy="134.418" r="35.71"/>
<path d="M131.375,0C58.821,0,0,58.822,0,131.38c0,94.994,65.689,105.101,65.689,179.554c0,8.759,8.758,17.513,17.518,17.513h96.342
	c8.764,0,17.521-8.754,17.521-17.513c0-74.453,65.688-84.56,65.688-179.554C262.755,58.822,203.933,0,131.375,0z M220.212,154.766
	c-3.037,3.154-16.619,0.457-20.154,3.293l-3.924,9.26c0.424,4.512,11.805,12.401,11.656,16.773
	c-0.111,3.292-10.35,13.521-12.188,15.254c-1.75,1.823-12.09,11.943-15.389,12.02c-4.377,0.103-12.131-11.361-16.643-11.84
	l-9.301,3.826c-2.871,3.513-0.322,17.118-3.508,20.125c-2.396,2.263-16.867,2.334-19.391,2.271
	c-2.525,0.063-16.996-0.009-19.389-2.271c-3.182-3.006-0.637-16.611-3.514-20.125l-10.697-4.542
	c-4.521,0.376-12.525,11.675-16.898,11.478c-3.289-0.152-13.408-10.492-15.121-12.351c-1.801-1.774-11.809-12.217-11.85-15.515
	c-0.054-4.377,11.491-12.011,12.016-16.513l-3.723-9.341c-3.477-2.912-17.109-0.511-20.078-3.732
	c-2.24-2.423-2.156-16.889-2.065-19.412c-0.036-2.527,0.196-16.993,2.481-19.367c3.043-3.145,16.616-0.457,20.16-3.284l3.924-9.26
	c-0.426-4.52-11.81-12.4-11.662-16.769c0.117-3.293,10.344-13.53,12.187-15.259c1.752-1.814,12.091-11.944,15.384-12.016
	c4.377-0.103,12.137,11.366,16.648,11.841l9.299-3.826c2.877-3.503,0.332-17.109,3.514-20.115c2.393-2.263,16.861-2.343,19.385-2.28
	c2.521-0.063,16.988,0.018,19.391,2.28c3.186,3.006,0.641,16.612,3.508,20.115l10.701,4.538
	c4.518-0.372,12.527-11.666,16.896-11.473c3.287,0.147,13.408,10.492,15.119,12.351c1.807,1.77,11.812,12.217,11.854,15.514
	c0.055,4.373-11.49,12.011-12.02,16.514l3.719,9.34c3.477,2.912,17.113,0.511,20.084,3.723c2.236,2.424,2.154,16.89,2.064,19.417
	C222.736,137.93,222.503,152.396,220.212,154.766z"/>
<g>
	<path d="M182,361.07H80.751c-6.035,0-10.922-4.889-10.922-10.923c0-6.029,4.891-10.923,10.922-10.923H182
		c6.033,0,10.922,4.896,10.922,10.923C192.921,356.183,188.029,361.07,182,361.07z"/>
</g>
<g>
	<path d="M182,393.698H80.751c-6.035,0-10.922-4.894-10.922-10.923c0-6.03,4.891-10.923,10.922-10.923H182
		c6.033,0,10.922,4.896,10.922,10.923C192.921,388.806,188.029,393.698,182,393.698z"/>
</g>
<path d="M173.8,408.298c-1.406-2.369-3.955-3.825-6.711-3.825H95.666c-2.756,0-5.309,1.451-6.711,3.821s-1.461,5.304-0.139,7.724
	c8.506,15.586,24.812,25.275,42.559,25.275c17.736,0,34.045-9.681,42.561-25.275C175.257,413.598,175.203,410.664,173.8,408.298z"/>
</svg>
